<svg width="161" height="54" fill="none" xmlns="http://www.w3.org/2000/svg">
    <path
        d="M147.263 0H12.749c-.49 0-.975 0-1.464.003-.409.002-.815.01-1.228.017-.89.022-1.791.078-2.68.238a8.608 8.608 0 00-4.706 2.437 8.45 8.45 0 00-1.575 2.19A8.952 8.952 0 00.26 7.453C.1 8.348.043 9.252.02 10.157c-.012.414-.013.83-.02 1.243V42.604c.007.42.008.825.02 1.245.023.904.079 1.808.24 2.702.156.905.42 1.753.836 2.571a8.38 8.38 0 001.575 2.18 8.388 8.388 0 002.165 1.59 8.9 8.9 0 002.541.852c.889.161 1.79.214 2.68.239.413.01.82.014 1.228.014.49.003.974.003 1.464.003h134.514c.482 0 .969 0 1.449-.003.409 0 .826-.005 1.234-.014.896-.025 1.795-.078 2.674-.239a9.053 9.053 0 002.552-.851 8.452 8.452 0 002.163-1.591 8.666 8.666 0 001.578-2.18c.41-.818.678-1.666.828-2.57.165-.895.216-1.799.25-2.703.004-.42.004-.826.004-1.245.01-.49.01-.978.01-1.477V12.873c0-.494 0-.984-.01-1.473 0-.414 0-.83-.004-1.243-.034-.905-.085-1.81-.25-2.703a8.956 8.956 0 00-.828-2.57 8.676 8.676 0 00-3.741-3.78 8.993 8.993 0 00-2.552-.846c-.879-.16-1.778-.216-2.674-.238-.408-.007-.825-.015-1.234-.017-.48-.003-.967-.003-1.449-.003z"
        fill="#B2B1B1" />
    <path
        d="M11.292 52.819c-.408 0-.805-.006-1.21-.015-.747-.021-1.634-.063-2.499-.22a7.818 7.818 0 01-2.215-.74A7.236 7.236 0 013.5 50.472a7.18 7.18 0 01-1.364-1.885 7.763 7.763 0 01-.726-2.238c-.164-.908-.206-1.83-.223-2.531-.009-.284-.02-1.232-.02-1.232V11.4s.012-.934.02-1.208c.017-.707.06-1.628.221-2.527.143-.828.38-1.56.727-2.244a7.25 7.25 0 011.357-1.887 7.447 7.447 0 011.875-1.38 7.732 7.732 0 012.211-.735c.9-.163 1.813-.203 2.508-.221l1.206-.017h137.413l1.221.017c.686.018 1.599.058 2.486.22a7.883 7.883 0 012.234.74 7.384 7.384 0 011.86 1.37 7.442 7.442 0 011.369 1.896c.345.69.579 1.421.717 2.226.154.852.202 1.727.231 2.548.004.383.004.793.004 1.202.012.506.012.988.012 1.473v28.255c0 .49 0 .968-.012 1.45 0 .44 0 .842-.005 1.256-.028.795-.076 1.67-.229 2.502a7.811 7.811 0 01-.722 2.255 7.362 7.362 0 01-1.357 1.87 7.286 7.286 0 01-1.871 1.381 7.82 7.82 0 01-2.231.742c-.856.157-1.742.199-2.499.22-.391.01-.803.015-1.201.015l-1.449.002-135.971-.002z"
        fill="#040403" />
    <path
        d="M33.12 27.406c-.034-3.714 3.01-5.52 3.15-5.606-1.724-2.538-4.398-2.886-5.337-2.913-2.245-.237-4.421 1.357-5.566 1.357-1.166 0-2.928-1.333-4.825-1.293-2.442.038-4.727 1.466-5.98 3.683-2.586 4.52-.658 11.163 1.82 14.816 1.239 1.791 2.687 3.79 4.582 3.718 1.855-.077 2.548-1.194 4.787-1.194 2.218 0 2.867 1.194 4.801 1.15 1.99-.033 3.244-1.798 4.44-3.605 1.432-2.05 2.008-4.07 2.03-4.175-.046-.015-3.865-1.486-3.903-5.938zM29.466 16.485c.997-1.26 1.68-2.973 1.491-4.713-1.444.065-3.25 1.008-4.289 2.241-.92 1.085-1.742 2.865-1.53 4.537 1.622.123 3.288-.826 4.328-2.065zM50.89 34.547h5.016l-2.473-7.353h-.069l-2.474 7.353zm5.673 2.091h-6.329l-1.52 4.532h-2.68l5.994-16.765h2.786l5.994 16.765h-2.726l-1.519-4.532zM71.201 35.059c0-2.474-1.266-4.101-3.199-4.101-1.899 0-3.176 1.66-3.176 4.1 0 2.464 1.277 4.113 3.176 4.113 1.933 0 3.2-1.615 3.2-4.112zm2.554 0c0 3.798-2.013 6.238-5.052 6.238-1.725 0-3.095-.778-3.809-2.138h-.057v6.054h-2.485V28.948h2.405v2.032h.046c.69-1.312 2.163-2.16 3.855-2.16 3.072 0 5.097 2.451 5.097 6.239zM84.525 35.059c0-2.474-1.266-4.101-3.199-4.101-1.898 0-3.175 1.66-3.175 4.1 0 2.464 1.277 4.113 3.175 4.113 1.933 0 3.2-1.615 3.2-4.112zm2.554 0c0 3.798-2.013 6.238-5.052 6.238-1.724 0-3.094-.778-3.808-2.138h-.058v6.054h-2.485V28.948h2.405v2.032h.046c.69-1.312 2.164-2.16 3.855-2.16 3.072 0 5.097 2.451 5.097 6.239zM95.886 36.498c.184 1.663 1.783 2.755 3.97 2.755 2.094 0 3.601-1.092 3.601-2.591 0-1.3-.909-2.08-3.061-2.614l-2.152-.524c-3.05-.743-4.465-2.183-4.465-4.519 0-2.892 2.497-4.879 6.042-4.879 3.509 0 5.914 1.987 5.995 4.88h-2.508c-.151-1.674-1.52-2.684-3.522-2.684s-3.372 1.022-3.372 2.509c0 1.185.875 1.883 3.016 2.417l1.829.453c3.407.814 4.822 2.196 4.822 4.647 0 3.137-2.474 5.101-6.41 5.101-3.682 0-6.169-1.918-6.329-4.95h2.544zM111.444 26.055v2.893h2.302v1.986h-2.302v6.738c0 1.047.461 1.535 1.473 1.535.253 0 .657-.036.817-.059v1.975c-.275.07-.828.117-1.38.117-2.451 0-3.407-.93-3.407-3.3v-7.006h-1.76v-1.986h1.76v-2.893h2.497zM124.032 35.059c0-2.638-1.198-4.195-3.211-4.195-2.014 0-3.21 1.569-3.21 4.195 0 2.649 1.196 4.194 3.21 4.194 2.013 0 3.211-1.545 3.211-4.194zm-8.953 0c0-3.845 2.244-6.262 5.742-6.262 3.51 0 5.743 2.416 5.743 6.262 0 3.856-2.222 6.263-5.743 6.263-3.52 0-5.742-2.407-5.742-6.263zM128.612 28.948h2.371v2.08h.057c.38-1.383 1.484-2.209 2.911-2.209.358 0 .656.048.852.094v2.347c-.196-.082-.634-.152-1.116-.152-1.6 0-2.59 1.093-2.59 2.812v7.25h-2.485V28.947zM137.86 33.932h6.052c-.058-1.871-1.242-3.103-2.969-3.103-1.714 0-2.956 1.256-3.083 3.103zm8.4 3.648c-.335 2.219-2.474 3.742-5.212 3.742-3.522 0-5.709-2.383-5.709-6.205 0-3.833 2.199-6.32 5.604-6.32 3.35 0 5.456 2.323 5.456 6.029v.86h-8.551v.151c0 2.09 1.301 3.462 3.257 3.462 1.38 0 2.463-.662 2.796-1.72h2.359zM48.936 18.703h1.504c1.669 0 2.63-1.05 2.63-2.897 0-1.82-.977-2.88-2.63-2.88h-1.504v5.777zm1.642-6.916c2.366 0 3.755 1.468 3.755 4.002 0 2.574-1.378 4.053-3.755 4.053h-2.881v-8.055h2.881zM60.189 16.8c0-1.318-.586-2.088-1.615-2.088-1.033 0-1.614.77-1.614 2.087 0 1.329.58 2.094 1.614 2.094 1.029 0 1.615-.77 1.615-2.094zm-4.457 0c0-1.96 1.084-3.155 2.842-3.155 1.753 0 2.837 1.195 2.837 3.154 0 1.971-1.079 3.16-2.837 3.16-1.764 0-2.842-1.189-2.842-3.16zM68.96 19.842h-1.233l-1.244-4.477h-.094l-1.24 4.477h-1.22l-1.66-6.079h1.205l1.079 4.639h.089l1.237-4.639h1.14l1.238 4.639h.094l1.074-4.639h1.188l-1.653 6.079zM72.009 13.763h1.144v.966h.088c.293-.676.89-1.083 1.797-1.083 1.344 0 2.084.814 2.084 2.26v3.936h-1.188v-3.634c0-.977-.42-1.463-1.3-1.463-.878 0-1.437.592-1.437 1.541v3.556h-1.188v-6.079zM79.016 11.39h1.188v8.452h-1.188V11.39zM86.312 16.8c0-1.318-.586-2.088-1.615-2.088-1.033 0-1.614.77-1.614 2.087 0 1.329.581 2.094 1.614 2.094 1.029 0 1.615-.77 1.615-2.094zm-4.456 0c0-1.96 1.083-3.155 2.841-3.155 1.754 0 2.838 1.195 2.838 3.154 0 1.971-1.08 3.16-2.838 3.16-1.763 0-2.841-1.189-2.841-3.16zM92.656 17.603v-.508l-1.47.095c-.829.056-1.205.341-1.205.877 0 .547.47.865 1.116.865.896 0 1.56-.575 1.56-1.329zm-3.87.52c0-1.095.807-1.725 2.24-1.815l1.63-.095v-.525c0-.642-.42-1.004-1.232-1.004-.664 0-1.123.246-1.255.675h-1.15c.121-1.044 1.094-1.713 2.46-1.713 1.509 0 2.36.758 2.36 2.042v4.154h-1.144v-.854h-.094c-.358.608-1.016.954-1.808.954-1.16 0-2.007-.708-2.007-1.82zM96.628 16.8c0 1.289.603 2.065 1.61 2.065 1.001 0 1.62-.787 1.62-2.06 0-1.267-.626-2.065-1.62-2.065-1.001 0-1.61.781-1.61 2.06zm-1.227 0c0-1.921.978-3.138 2.5-3.138.824 0 1.52.396 1.846 1.067h.088V11.39h1.189v8.452h-1.139v-.96h-.094c-.359.664-1.061 1.06-1.89 1.06-1.532 0-2.5-1.216-2.5-3.142zM110.397 16.8c0-1.318-.586-2.088-1.615-2.088-1.034 0-1.614.77-1.614 2.087 0 1.329.58 2.094 1.614 2.094 1.029 0 1.615-.77 1.615-2.094zm-4.457 0c0-1.96 1.084-3.155 2.842-3.155 1.753 0 2.837 1.195 2.837 3.154 0 1.971-1.079 3.16-2.837 3.16-1.763 0-2.842-1.189-2.842-3.16zM113.213 13.763h1.144v.966h.089c.293-.676.891-1.083 1.797-1.083 1.343 0 2.084.814 2.084 2.26v3.936h-1.188v-3.634c0-.977-.421-1.463-1.3-1.463-.878 0-1.437.592-1.437 1.541v3.556h-1.189v-6.079zM125.041 12.25v1.54h1.304v1.012h-1.304v3.125c0 .637.26.916.852.916.182 0 .287-.012.452-.028v1a3.863 3.863 0 01-.646.06c-1.321 0-1.848-.469-1.848-1.641V14.8h-.955v-1.01h.955V12.25h1.19zM127.969 11.39h1.178v3.35h.094c.292-.681.928-1.09 1.836-1.09 1.282 0 2.073.821 2.073 2.267v3.925h-1.19v-3.629c0-.97-.447-1.463-1.287-1.463-.974 0-1.516.62-1.516 1.542v3.55h-1.188V11.39zM135.898 16.242h3.042c-.028-.955-.603-1.575-1.483-1.575-.878 0-1.492.625-1.559 1.575zm4.18 1.959c-.27 1.089-1.233 1.758-2.609 1.758-1.724 0-2.781-1.194-2.781-3.137s1.079-3.176 2.776-3.176c1.676 0 2.686 1.155 2.686 3.064v.419h-4.252v.067c.04 1.066.654 1.741 1.604 1.741.72 0 1.212-.262 1.433-.736h1.143z"
        fill="white" />
</svg>